<?xml version="1.0" encoding="utf-8"?>
<!-- Generator: Adobe Illustrator 14.0.0, SVG Export Plug-In . SVG Version: 6.00 Build 43363)  -->
<!DOCTYPE svg PUBLIC "-//W3C//DTD SVG 1.1//EN" "http://www.w3.org/Graphics/SVG/1.1/DTD/svg11.dtd">
<svg version="1.1" id="Layer_1" xmlns="http://www.w3.org/2000/svg" xmlns:xlink="http://www.w3.org/1999/xlink" x="0px" y="0px"
	 width="887.823px" height="629.874px" viewBox="0 0 887.823 629.874" enable-background="new 0 0 887.823 629.874"
	 xml:space="preserve">
<g>
	<polygon fill="#A97C50" points="777.956,169.178 775.956,169.178 765.956,74.682 695.46,74.682 685.46,169.178 683.46,169.178 
		673.46,74.682 434.092,74.682 424.092,169.178 422.092,169.178 412.092,74.682 341.596,74.682 331.596,169.178 329.596,169.178 
		319.596,74.682 80.228,74.682 70.228,169.178 70.228,494.893 80.228,589.389 319.596,589.389 329.596,494.893 331.596,494.893 
		341.596,589.389 412.092,589.389 422.092,494.893 424.092,494.893 434.092,589.389 673.46,589.389 683.46,494.893 685.46,494.893 
		695.46,589.389 765.956,589.389 775.956,494.893 777.956,494.893 824.484,484.893 824.484,179.178 	"/>
	<path fill="none" stroke="#FFFFFF" stroke-width="1.4" d="M294.311,169.178h22.913 M281.938,169.178h-22.913 M223.741,169.178
		h22.912 M188.456,169.178h22.912 M153.171,169.178h22.912 M140.798,169.178h-22.913 M105.513,169.178H82.601 M345.096,169.178
		h24.999 M383.594,169.178h24.999 M457.649,169.178H434.56 M493.206,169.178h-23.089 M528.763,169.178h-23.089 M564.32,169.178
		h-23.089 M599.877,169.178h-23.089 M635.435,169.178h-23.089 M670.992,169.178h-23.089 M698.959,169.178h24.999 M737.458,169.178
		h24.999 M294.311,494.893h22.913 M259.026,494.893h22.913 M223.741,494.893h22.912 M188.456,494.893h22.912 M153.171,494.893
		h22.912 M117.886,494.893h22.913 M82.601,494.893h22.913 M370.094,494.893h-24.999 M408.592,494.893h-24.999 M434.56,494.893
		h23.089 M470.117,494.893h23.089 M505.674,494.893h23.089 M541.231,494.893h23.089 M576.789,494.893h23.089 M612.346,494.893
		h23.089 M647.903,494.893h23.089 M723.958,494.893h-24.999 M762.456,494.893h-24.999 M775.956,181.392v22.619 M775.956,216.226
		v22.619 M775.956,251.059v22.619 M775.956,285.893v22.619 M775.956,320.726v22.619 M775.956,355.559v22.619 M775.956,390.393
		v22.619 M775.956,425.226v22.619 M775.956,460.06v22.619 M683.475,181.392v22.619 M683.475,216.226v22.619 M683.475,251.059v22.619
		 M683.475,285.893v22.619 M683.475,320.726v22.619 M683.475,355.559v22.619 M683.475,390.393v22.619 M683.475,425.226v22.619
		 M683.475,460.06v22.619 M424.092,204.011v-22.619 M424.092,238.845v-22.619 M424.092,273.678v-22.619 M424.092,308.512v-22.619
		 M424.092,343.345v-22.619 M424.092,378.178v-22.619 M424.092,413.012v-22.619 M424.092,447.845v-22.619 M424.092,482.679V460.06
		 M329.596,181.392v22.619 M329.596,216.226v22.619 M329.596,251.059v22.619 M329.596,285.893v22.619 M329.596,320.726v22.619
		 M329.596,355.559v22.619 M329.596,390.393v22.619 M329.596,425.226v22.619 M329.596,460.06v22.619"/>
</g>
</svg>
